<?xml version="1.0" standalone="no"?>
<!DOCTYPE svg PUBLIC "-//W3C//DTD SVG 20010904//EN"
 "http://www.w3.org/TR/2001/REC-SVG-20010904/DTD/svg10.dtd">
<svg version="1.0" xmlns="http://www.w3.org/2000/svg"
 width="971.000000pt" height="404.000000pt" viewBox="0 0 971.000000 404.000000"
 preserveAspectRatio="xMidYMid meet">

<g transform="translate(0.000000,404.000000) scale(0.100000,-0.100000)"
fill="#000000" stroke="none">
<path d="M3327 2873 c-9 -509 -45 -744 -164 -1065 l-36 -98 -89 0 -88 0 0
-380 0 -380 178 0 177 0 35 193 35 192 523 3 522 2 0 -195 0 -195 179 0 180 0
7 58 c4 31 25 201 48 377 l41 320 -87 3 -88 3 0 749 0 750 -684 0 -683 0 -6
-337z m953 -598 l0 -565 -360 0 c-198 0 -360 1 -360 3 0 1 16 46 35 99 91 257
135 544 135 896 l0 132 275 0 275 0 0 -565z"/>
<path d="M7015 2784 c-111 -17 -335 -81 -358 -104 -6 -6 76 -292 89 -308 1 -2
38 8 81 21 112 36 187 48 305 49 163 1 249 -39 294 -136 30 -64 34 -150 7
-142 -133 39 -151 41 -333 41 -176 0 -189 -2 -264 -28 -230 -81 -339 -253
-306 -485 13 -96 46 -168 105 -231 55 -59 107 -91 195 -122 90 -30 274 -31
370 0 74 23 170 78 218 124 l32 31 0 -77 0 -77 196 0 195 0 -3 503 -3 502 -27
77 c-61 183 -178 290 -373 344 -59 16 -348 28 -420 18z m378 -844 l67 -21 0
-53 c0 -115 -67 -210 -176 -248 -188 -67 -362 5 -364 149 -1 96 60 166 167
193 61 15 229 5 306 -20z"/>
<path d="M5468 2773 l-378 -3 0 -715 0 -716 493 3 492 3 67 33 c211 103 284
328 175 535 -34 64 -99 128 -164 160 l-42 20 37 27 c51 37 95 88 123 146 20
41 24 64 24 144 0 82 -4 103 -27 153 -38 81 -118 158 -193 186 -73 27 -105 29
-607 24z m370 -313 c98 -60 94 -201 -8 -253 -30 -15 -58 -17 -185 -15 l-150 3
-3 143 -3 142 158 0 c140 0 162 -2 191 -20z m52 -578 c102 -51 107 -195 8
-249 -28 -15 -59 -18 -218 -18 l-185 0 -3 129 c-1 72 0 136 2 143 4 10 46 13
183 13 150 0 184 -3 213 -18z"/>
<path d="M8032 2433 c4 -384 7 -398 83 -502 50 -68 121 -120 210 -154 53 -19
78 -22 210 -21 154 1 220 14 348 68 l37 16 0 -250 0 -250 205 0 205 0 0 715 0
715 -205 0 -205 0 0 -309 0 -310 -56 -20 c-82 -31 -131 -40 -210 -41 -96 0
-149 27 -184 95 -25 49 -25 53 -28 317 l-3 268 -205 0 -205 0 3 -337z"/>
</g>
</svg>
